<svg version="1.2" baseProfile="tiny-ps" xmlns="http://www.w3.org/2000/svg" viewBox="0 0 1350 1350" width="1350" height="1350">
	<title>1608</title>
	<style>
		tspan { white-space:pre }
		.shp0 { fill: #005f93 } 
		.shp1 { fill: #0966a3 } 
		.shp2 { fill: #0d68a1 } 
		.shp3 { fill: #157eb7 } 
		.shp4 { fill: #146eaa } 
		.shp5 { fill: #30a8da } 
		.shp6 { fill: #238bc8 } 
		.shp7 { fill: #024f85 } 
		.shp8 { fill: #004772 } 
		.shp9 { fill: #3ebde5 } 
	</style>
	<g id="layer">
		<g id="&lt;Group&gt;">
			<path id="&lt;Path&gt;" class="shp0" d="M694.84 437.27L649.77 438.58L719 388.94L694.84 437.27Z" />
			<path id="&lt;Path&gt;" class="shp0" d="M649.77 438.58L616.46 443.15L616.46 414.41L649.77 438.58Z" />
			<path id="&lt;Path&gt;" class="shp1" d="M649.77 438.58L719 388.94L616.46 414.41L649.77 438.58Z" />
			<path id="&lt;Path&gt;" class="shp2" d="M694.84 437.27L649.77 438.58L690.26 483.64L694.84 437.27Z" />
			<path id="&lt;Path&gt;" class="shp3" d="M694.84 437.27L719 388.94L690.26 483.64L694.84 437.27Z" />
			<path id="&lt;Path&gt;" class="shp4" d="M570.77 441.28L616.46 443.15L616.46 414.41L570.77 441.28Z" />
			<path id="&lt;Path&gt;" class="shp0" d="M570.77 441.28L616.46 443.15L569.52 459.03L570.77 441.28Z" />
			<path id="&lt;Path&gt;" class="shp4" d="M661.02 380.53L719 388.94L616.46 414.41L661.02 380.53Z" />
			<path id="&lt;Path&gt;" class="shp3" d="M661.02 380.53L622.52 382.28L616.46 414.41L661.02 380.53Z" />
			<path id="&lt;Path&gt;" class="shp5" d="M661.02 380.53L672.02 360.03L622.52 382.28L661.02 380.53Z" />
			<path id="&lt;Path&gt;" class="shp6" d="M584.46 416.65L622.52 382.28L616.46 414.41L584.46 416.65Z" />
			<path id="&lt;Path&gt;" class="shp3" d="M584.46 416.65L570.77 441.28L616.46 414.41L584.46 416.65Z" />
			<path id="&lt;Path&gt;" class="shp5" d="M584.46 416.65L567.4 407.46L622.52 382.28L584.46 416.65Z" />
			<path id="&lt;Path&gt;" class="shp6" d="M584.46 416.65L570.77 441.28L549.02 416.28L584.46 416.65Z" />
			<path id="&lt;Path&gt;" class="shp3" d="M661.02 380.53L719 388.94L672.02 360.03L661.02 380.53Z" />
			<path id="&lt;Path&gt;" class="shp6" d="M711.27 368.03L719 388.94L672.02 360.03L711.27 368.03Z" />
			<path id="&lt;Path&gt;" class="shp5" d="M711.27 368.03L713.02 355.03L672.02 360.03L711.27 368.03Z" />
			<path id="&lt;Path&gt;" class="shp3" d="M711.27 368.03L719 388.94L713.02 355.03L711.27 368.03Z" />
			<path id="&lt;Path&gt;" class="shp4" d="M722.27 436.15L719 388.94L690.26 483.64L722.27 436.15Z" />
			<path id="&lt;Path&gt;" class="shp0" d="M722.27 436.15L748.15 477.03L690.26 483.64L722.27 436.15Z" />
			<path id="&lt;Path&gt;" class="shp3" d="M669.02 522.78L649.77 438.58L690.26 483.64L669.02 522.78Z" />
			<path id="&lt;Path&gt;" class="shp4" d="M570.77 441.28L549.02 433.53L569.52 459.03L570.77 441.28Z" />
			<path id="&lt;Path&gt;" class="shp3" d="M570.77 441.28L549.02 433.53L549.02 416.28L570.77 441.28Z" />
			<path id="&lt;Path&gt;" class="shp5" d="M520.15 439.15L549.02 433.53L523.52 485.65L520.15 439.15Z" />
			<path id="&lt;Path&gt;" class="shp5" d="M534.96 711.29L532.6 699.99L593.32 742.82L534.96 711.29Z" />
			<path id="&lt;Path&gt;" class="shp5" d="M172.06 657.9L152.56 635.52L236.24 635.05L172.06 657.9Z" />
			<path id="&lt;Path&gt;" class="shp5" d="M606.02 1023.81L615.77 1004.28L654.58 1017.53L606.02 1023.81Z" />
			<path id="&lt;Path&gt;" class="shp5" d="M318.02 1146.78L347.27 1136.28L357.77 1169.28L318.02 1146.78Z" />
			<path id="&lt;Path&gt;" class="shp3" d="M556.9 518.65L549.02 433.53L541.77 478.03L556.9 518.65Z" />
			<path id="&lt;Path&gt;" class="shp6" d="M556.9 518.65L546.4 550.15L523.52 485.65L556.9 518.65Z" />
			<path id="&lt;Path&gt;" class="shp3" d="M570.4 495.03L549.02 433.53L569.52 459.03L570.4 495.03Z" />
			<path id="&lt;Path&gt;" class="shp4" d="M570.4 495.03L549.02 433.53L556.9 518.65L570.4 495.03Z" />
			<path id="&lt;Path&gt;" class="shp3" d="M570.4 495.03L576.32 556.76L556.9 518.65L570.4 495.03Z" />
			<path id="&lt;Path&gt;" class="shp4" d="M546.4 550.15L576.32 556.76L556.9 518.65L546.4 550.15Z" />
			<path id="&lt;Path&gt;" class="shp4" d="M546.4 550.15L556.77 583.53L564.77 566.03L546.4 550.15Z" />
			<path id="&lt;Path&gt;" class="shp6" d="M576.32 556.76L556.77 583.53L564.77 566.03L576.32 556.76Z" />
			<path id="&lt;Path&gt;" class="shp5" d="M576.32 556.76L556.77 583.53L604.27 586.53L576.32 556.76Z" />
			<path id="&lt;Path&gt;" class="shp6" d="M557.27 619.53L556.77 583.53L586.27 618.53L557.27 619.53Z" />
			<path id="&lt;Path&gt;" class="shp3" d="M604.27 586.53L556.77 583.53L586.27 618.53L604.27 586.53Z" />
			<path id="&lt;Path&gt;" class="shp5" d="M604.27 586.53L613.77 632.53L586.27 618.53L604.27 586.53Z" />
			<path id="&lt;Path&gt;" class="shp0" d="M572.77 640.53L613.77 632.53L586.27 618.53L572.77 640.53Z" />
			<path id="&lt;Path&gt;" class="shp6" d="M604.27 586.53L613.77 632.53L616.77 611.53L604.27 586.53Z" />
			<path id="&lt;Path&gt;" class="shp7" d="M786.02 514.53L748.15 477.03L690.26 483.64L786.02 514.53Z" />
			<path id="&lt;Path&gt;" class="shp0" d="M786.02 514.53L748.15 477.03L817.85 497.26L786.02 514.53Z" />
			<path id="&lt;Path&gt;" class="shp2" d="M817.85 466.35L748.15 477.03L817.85 497.26L817.85 466.35Z" />
			<path id="&lt;Path&gt;" class="shp3" d="M817.85 466.35L748.15 477.03L775.52 411.03L817.85 466.35Z" />
			<path id="&lt;Path&gt;" class="shp1" d="M722.27 436.15L748.15 477.03L719 388.94L722.27 436.15Z" />
			<path id="&lt;Path&gt;" class="shp7" d="M697.69 587.57L669.02 522.78L690.26 483.64L697.69 587.57Z" />
			<path id="&lt;Path&gt;" class="shp2" d="M697.69 587.57L669.02 522.78L675.88 565.9L697.69 587.57Z" />
			<path id="&lt;Path&gt;" class="shp6" d="M719 388.94L748.15 477.03L775.52 411.03L719 388.94Z" />
			<path id="&lt;Path&gt;" class="shp5" d="M719 388.94L713.02 355.03L775.52 411.03L719 388.94Z" />
			<path id="&lt;Path&gt;" class="shp6" d="M768.46 360.62L713.02 355.03L775.52 411.03L768.46 360.62Z" />
			<path id="&lt;Path&gt;" class="shp3" d="M768.46 360.62L713.02 355.03L707.75 316.96L768.46 360.62Z" />
			<path id="&lt;Path&gt;" class="shp4" d="M768.46 360.62L774.09 348.49L707.75 316.96L768.46 360.62Z" />
			<path id="&lt;Path&gt;" class="shp7" d="M806.07 350.28L774.09 348.49L753.86 324.12L806.07 350.28Z" />
			<path id="&lt;Path&gt;" class="shp0" d="M806.07 350.28L750.16 297.66L753.86 324.12L806.07 350.28Z" />
			<path id="&lt;Path&gt;" class="shp0" d="M707.75 316.96L774.09 348.49L753.86 324.12L707.75 316.96Z" />
			<path id="&lt;Path&gt;" class="shp4" d="M707.75 316.96L750.16 297.66L753.86 324.12L707.75 316.96Z" />
			<path id="&lt;Path&gt;" class="shp0" d="M707.75 316.96L750.16 297.66L691.11 265.76L707.75 316.96Z" />
			<path id="&lt;Path&gt;" class="shp5" d="M758.17 269.24L750.16 297.66L743.27 260.64L758.17 269.24Z" />
			<path id="&lt;Path&gt;" class="shp3" d="M730.36 270.97L750.16 297.66L743.27 260.64L730.36 270.97Z" />
			<path id="&lt;Path&gt;" class="shp4" d="M730.36 270.97L750.16 297.66L691.11 265.76L730.36 270.97Z" />
			<path id="&lt;Path&gt;" class="shp3" d="M806.07 350.28L750.16 297.66L814.71 325.39L806.07 350.28Z" />
			<path id="&lt;Path&gt;" class="shp6" d="M758.17 269.24L750.16 297.66L814.71 325.39L758.17 269.24Z" />
			<path id="&lt;Path&gt;" class="shp3" d="M758.17 269.24L819.18 307.38L814.71 325.39L758.17 269.24Z" />
			<path id="&lt;Path&gt;" class="shp5" d="M817.11 277.32L819.18 307.38L825.14 307.22L817.11 277.32Z" />
			<path id="&lt;Path&gt;" class="shp6" d="M817.11 277.32L819.18 307.38L797.61 277.31L817.11 277.32Z" />
			<path id="&lt;Path&gt;" class="shp5" d="M758.17 269.24L819.18 307.38L797.61 277.31L758.17 269.24Z" />
			<path id="&lt;Path&gt;" class="shp6" d="M758.17 269.24L776.37 250.92L797.61 277.31L758.17 269.24Z" />
			<path id="&lt;Path&gt;" class="shp3" d="M799.22 260.74L776.37 250.92L797.61 277.31L799.22 260.74Z" />
			<path id="&lt;Path&gt;" class="shp4" d="M799.22 260.74L817.11 277.32L797.61 277.31L799.22 260.74Z" />
			<path id="&lt;Path&gt;" class="shp7" d="M799.22 260.74L817.11 277.32L816.54 261.92L799.22 260.74Z" />
			<path id="&lt;Path&gt;" class="shp6" d="M799.22 260.74L776.37 250.92L816.54 261.92L799.22 260.74Z" />
			<path id="&lt;Path&gt;" class="shp4" d="M802 242.95L776.37 250.92L816.54 261.92L802 242.95Z" />
			<path id="&lt;Path&gt;" class="shp6" d="M802 242.95L811.83 230.41L816.54 261.92L802 242.95Z" />
			<path id="&lt;Path&gt;" class="shp3" d="M802 242.95L811.83 230.41L783.61 211.84L802 242.95Z" />
			<path id="&lt;Path&gt;" class="shp0" d="M802 242.95L776.37 250.92L783.61 211.84L802 242.95Z" />
			<path id="&lt;Path&gt;" class="shp0" d="M758.17 269.24L776.37 250.92L743.27 260.64L758.17 269.24Z" />
			<path id="&lt;Path&gt;" class="shp0" d="M730.36 270.97L691.11 265.76L743.27 260.64L730.36 270.97Z" />
			<path id="&lt;Path&gt;" class="shp4" d="M703.28 231.67L691.11 265.76L743.27 260.64L703.28 231.67Z" />
			<path id="&lt;Path&gt;" class="shp0" d="M743.27 260.64L738.94 210.05L729.28 229.24L743.27 260.64Z" />
			<path id="&lt;Path&gt;" class="shp4" d="M776.37 250.92L738.94 210.05L743.27 260.64L776.37 250.92Z" />
			<path id="&lt;Path&gt;" class="shp0" d="M776.37 250.92L738.94 210.05L769.41 226.75L776.37 250.92Z" />
			<path id="&lt;Path&gt;" class="shp4" d="M776.37 250.92L783.61 211.84L769.41 226.75L776.37 250.92Z" />
			<path id="&lt;Path&gt;" class="shp5" d="M738.94 210.05L783.61 211.84L769.41 226.75L738.94 210.05Z" />
			<path id="&lt;Path&gt;" class="shp2" d="M641.22 251.37L691.11 265.76L645.2 275.32L641.22 251.37Z" />
			<path id="&lt;Path&gt;" class="shp7" d="M641.22 251.37L691.11 265.76L694.85 255.3L641.22 251.37Z" />
			<path id="&lt;Path&gt;" class="shp0" d="M641.22 251.37L660.14 238.75L694.85 255.3L641.22 251.37Z" />
			<path id="&lt;Path&gt;" class="shp0" d="M485.9 246.78L504.65 219.78L512.15 226.52L485.9 246.78Z" />
			<path id="&lt;Path&gt;" class="shp0" d="M474.11 437.44L473.92 431.37L491.24 432.4L474.11 437.44Z" />
			<path id="&lt;Path&gt;" class="shp0" d="M558.3 763.41L558.32 741.58L604.61 763.61L558.3 763.41Z" />
			<path id="&lt;Path&gt;" class="shp0" d="M399.02 1003.52L408.02 953.28L420.86 1003.61L399.02 1003.52Z" />
			<path id="&lt;Path&gt;" class="shp0" d="M107.27 1016.03L143.3 1001.7L183.11 1023.07L107.27 1016.03Z" />
			<path id="&lt;Path&gt;" class="shp0" d="M661.52 1095.78L693.02 1096.53L698.27 1127.28L661.52 1095.78Z" />
			<path id="&lt;Path&gt;" class="shp7" d="M641.22 251.37L591.56 259.67L645.2 275.32L641.22 251.37Z" />
			<path id="&lt;Path&gt;" class="shp6" d="M584.91 299.75L603.05 274.85L645.2 275.32L584.91 299.75Z" />
			<path id="&lt;Path&gt;" class="shp6" d="M522.4 208.15L549.77 210.03L573.77 237.03L522.4 208.15Z" />
			<path id="&lt;Path&gt;" class="shp6" d="M661.9 225.78L667.52 206.65L683.65 235.15L661.9 225.78Z" />
			<path id="&lt;Path&gt;" class="shp4" d="M584.91 299.75L644.29 306.97L645.2 275.32L584.91 299.75Z" />
			<path id="&lt;Path&gt;" class="shp0" d="M691.11 265.76L644.29 306.97L645.2 275.32L691.11 265.76Z" />
			<path id="&lt;Path&gt;" class="shp3" d="M584.91 299.75L603.05 274.85L573 249.64L584.91 299.75Z" />
			<path id="&lt;Path&gt;" class="shp3" d="M560.27 257.03L553.27 234.53L518.77 245.03L560.27 257.03Z" />
			<path id="&lt;Path&gt;" class="shp3" d="M549.68 400.16L525.5 383.53L506.77 394.03L549.68 400.16Z" />
			<path id="&lt;Path&gt;" class="shp3" d="M348.3 699.24L321.15 694.47L314.58 723.18L348.3 699.24Z" />
			<path id="&lt;Path&gt;" class="shp3" d="M815.46 823.65L768.76 826.73L755.27 838.53L815.46 823.65Z" />
			<path id="&lt;Path&gt;" class="shp3" d="M516.45 555.72L487.29 560.12L473.55 549.59L516.45 555.72Z" />
			<path id="&lt;Path&gt;" class="shp3" d="M669.27 579.53L649.27 553.03L643.77 585.03L669.27 579.53Z" />
			<path id="&lt;Path&gt;" class="shp3" d="M534.86 637.67L489.56 643.94L518.26 660.55L534.86 637.67Z" />
			<path id="&lt;Path&gt;" class="shp3" d="M367.27 576.03L267.27 544.03L293.4 565.43L367.27 576.03Z" />
			<path id="&lt;Path&gt;" class="shp3" d="M897.68 415.91L873.27 389.28L879.77 416.28L897.68 415.91Z" />
			<path id="&lt;Path&gt;" class="shp3" d="M423.27 286.03L369.84 271.17L377.27 288.03L423.27 286.03Z" />
			<path id="&lt;Path&gt;" class="shp3" d="M747.77 930.03L715.55 893.23L722.27 930.03L747.77 930.03Z" />
			<path id="&lt;Path&gt;" class="shp3" d="M612.33 206.72L599.49 194.86L594.12 204.12L612.33 206.72Z" />
			<path id="&lt;Path&gt;" class="shp0" d="M618.25 238.93L660.14 238.75L591.56 259.67L618.25 238.93Z" />
			<path id="&lt;Path&gt;" class="shp4" d="M618.25 238.93L579.86 227.03L591.56 259.67L618.25 238.93Z" />
			<path id="&lt;Path&gt;" class="shp5" d="M618.25 238.93L579.86 227.03L660.14 238.75L618.25 238.93Z" />
			<path id="&lt;Path&gt;" class="shp7" d="M691.11 265.76L644.29 306.97L671.9 300.23L691.11 265.76Z" />
			<path id="&lt;Path&gt;" class="shp8" d="M618.12 324.98L644.29 306.97L671.9 300.23L618.12 324.98Z" />
			<path id="&lt;Path&gt;" class="shp7" d="M618.12 324.98L644.29 306.97L584.91 299.75L618.12 324.98Z" />
			<path id="&lt;Path&gt;" class="shp8" d="M618.12 324.98L546.26 316.55L586.69 312.15L618.12 324.98Z" />
			<path id="&lt;Path&gt;" class="shp0" d="M618.12 324.98L584.91 299.75L586.69 312.15L618.12 324.98Z" />
			<path id="&lt;Path&gt;" class="shp4" d="M546.26 316.55L584.91 299.75L586.69 312.15L546.26 316.55Z" />
			<path id="&lt;Path&gt;" class="shp3" d="M546.26 316.55L584.91 299.75L533.92 295.47L546.26 316.55Z" />
			<path id="&lt;Path&gt;" class="shp9" d="M532.68 266.64L560.33 287.92L533.92 295.47L532.68 266.64Z" />
			<path id="&lt;Path&gt;" class="shp9" d="M454.79 381.89L482.44 403.16L450.76 393.98L454.79 381.89Z" />
			<path id="&lt;Path&gt;" class="shp9" d="M724.52 193.9L720.83 209.17L694.42 216.72L724.52 193.9Z" />
			<path id="&lt;Path&gt;" class="shp9" d="M875.04 365.08L877.5 376.02L859.52 367.78L875.04 365.08Z" />
			<path id="&lt;Path&gt;" class="shp9" d="M450.68 256.64L484.77 257.53L471.18 269.09L450.68 256.64Z" />
			<path id="&lt;Path&gt;" class="shp5" d="M817.85 466.35L768.46 360.62L775.52 411.03L817.85 466.35Z" />
			<path id="&lt;Path&gt;" class="shp7" d="M786.02 514.53L790.52 542.28L817.85 497.26L786.02 514.53Z" />
			<path id="&lt;Path&gt;" class="shp1" d="M786.02 514.53L790.52 542.28L690.26 483.64L786.02 514.53Z" />
			<path id="&lt;Path&gt;" class="shp1" d="M697.69 587.57L732.77 541.53L690.26 483.64L697.69 587.57Z" />
			<path id="&lt;Path&gt;" class="shp3" d="M790.52 542.28L732.77 541.53L690.26 483.64L790.52 542.28Z" />
			<path id="&lt;Path&gt;" class="shp0" d="M790.52 542.28L732.77 541.53L697.69 587.57L790.52 542.28Z" />
			<path id="&lt;Path&gt;" class="shp6" d="M697.69 587.57L644.27 662.28L673.8 600.71L697.69 587.57Z" />
			<path id="&lt;Path&gt;" class="shp3" d="M697.69 587.57L644.27 662.28L695.27 666.03L697.69 587.57Z" />
			<path id="&lt;Path&gt;" class="shp5" d="M626.27 681.78L644.27 662.28L695.27 666.03L626.27 681.78Z" />
			<path id="&lt;Path&gt;" class="shp6" d="M626.27 681.78L617.27 713.28L695.27 666.03L626.27 681.78Z" />
			<path id="&lt;Path&gt;" class="shp2" d="M627.77 747.78L617.27 713.28L655.52 753.03L627.77 747.78Z" />
			<path id="&lt;Path&gt;" class="shp0" d="M758.07 779.41L617.27 713.28L655.52 753.03L758.07 779.41Z" />
			<path id="&lt;Path&gt;" class="shp3" d="M719.27 739.53L617.27 713.28L695.27 666.03L719.27 739.53Z" />
			<path id="&lt;Path&gt;" class="shp2" d="M719.27 739.53L617.27 713.28L758.07 779.41L719.27 739.53Z" />
			<path id="&lt;Path&gt;" class="shp8" d="M627.77 747.78L725.34 781.81L655.52 753.03L627.77 747.78Z" />
			<path id="&lt;Path&gt;" class="shp7" d="M627.77 747.78L655.14 778.12L725.34 781.81L627.77 747.78Z" />
			<path id="&lt;Path&gt;" class="shp8" d="M651.18 877.1L655.14 778.12L725.34 781.81L651.18 877.1Z" />
			<path id="&lt;Path&gt;" class="shp0" d="M594.02 809.28L655.14 778.12L621.58 771.63L594.02 809.28Z" />
			<path id="&lt;Path&gt;" class="shp1" d="M594.02 809.28L655.14 778.12L651.18 877.1L594.02 809.28Z" />
			<path id="&lt;Path&gt;" class="shp6" d="M594.02 809.28L565.84 878.55L600.77 852.78L594.02 809.28Z" />
			<path id="&lt;Path&gt;" class="shp3" d="M594.02 809.28L651.18 877.1L600.77 852.78L594.02 809.28Z" />
			<path id="&lt;Path&gt;" class="shp1" d="M614.77 927.53L651.18 877.1L600.77 852.78L614.77 927.53Z" />
			<path id="&lt;Path&gt;" class="shp0" d="M614.77 927.53L555.27 904.53L600.77 852.78L614.77 927.53Z" />
			<path id="&lt;Path&gt;" class="shp8" d="M614.77 927.53L563.27 960.03L604.27 943.03L614.77 927.53Z" />
			<path id="&lt;Path&gt;" class="shp7" d="M614.77 927.53L563.27 960.03L555.27 904.53L614.77 927.53Z" />
			<path id="&lt;Path&gt;" class="shp6" d="M511.77 922.03L504.77 966.03L555.27 904.53L511.77 922.03Z" />
			<path id="&lt;Path&gt;" class="shp5" d="M511.77 922.03L504.77 966.03L460.27 988.53L511.77 922.03Z" />
			<path id="&lt;Path&gt;" class="shp1" d="M563.27 960.03L504.77 966.03L555.27 904.53L563.27 960.03Z" />
			<path id="&lt;Path&gt;" class="shp0" d="M563.27 960.03L504.77 966.03L523.77 1000.53L563.27 960.03Z" />
			<path id="&lt;Path&gt;" class="shp7" d="M449.77 1031.53L504.77 966.03L523.77 1000.53L449.77 1031.53Z" />
			<path id="&lt;Path&gt;" class="shp1" d="M449.77 1031.53L504.77 966.03L460.27 988.53L449.77 1031.53Z" />
			<path id="&lt;Path&gt;" class="shp6" d="M449.77 1031.53L405.27 1079.03L432.53 1034.18L449.77 1031.53Z" />
			<path id="&lt;Path&gt;" class="shp0" d="M449.77 1031.53L448.27 1068.03L523.77 1000.53L449.77 1031.53Z" />
			<path id="&lt;Path&gt;" class="shp7" d="M449.77 1031.53L448.27 1068.03L405.27 1079.03L449.77 1031.53Z" />
			<path id="&lt;Path&gt;" class="shp8" d="M438.58 1101.5L448.27 1068.03L405.27 1079.03L438.58 1101.5Z" />
			<path id="&lt;Path&gt;" class="shp5" d="M406.27 1054.03L432.53 1034.18L405.27 1079.03L406.27 1054.03Z" />
			<path id="&lt;Path&gt;" class="shp9" d="M406.27 1054.03L369.91 1063.83L405.27 1079.03L406.27 1054.03Z" />
			<path id="&lt;Path&gt;" class="shp0" d="M382.25 1110.64L369.91 1063.83L405.27 1079.03L382.25 1110.64Z" />
			<path id="&lt;Path&gt;" class="shp7" d="M382.25 1110.64L438.58 1101.5L405.27 1079.03L382.25 1110.64Z" />
			<path id="&lt;Path&gt;" class="shp6" d="M403.26 1149.36L432.58 1101.5L415.28 1180.94L403.26 1149.36Z" />
			<path id="&lt;Path&gt;" class="shp0" d="M403.26 1149.36L438.58 1101.5L382.25 1110.64L403.26 1149.36Z" />
			<path id="&lt;Path&gt;" class="shp7" d="M403.26 1149.36L400.71 1183.08L382.25 1110.64L403.26 1149.36Z" />
			<path id="&lt;Path&gt;" class="shp0" d="M403.26 1149.36L400.71 1183.08L421.28 1180.94L403.26 1149.36Z" />
			<path id="&lt;Path&gt;" class="shp7" d="M428.89 1208.5L400.71 1183.08L421.28 1180.94L428.89 1208.5Z" />
			<path id="&lt;Path&gt;" class="shp0" d="M428.89 1208.5L400.71 1183.08L421.09 1214.79L428.89 1208.5Z" />
			<path id="&lt;Path&gt;" class="shp8" d="M400.2 1202.21L400.71 1183.08L421.09 1214.79L400.2 1202.21Z" />
			<path id="&lt;Path&gt;" class="shp7" d="M400.2 1202.21L400.71 1183.08L376.05 1156.91L400.2 1202.21Z" />
			<path id="&lt;Path&gt;" class="shp0" d="M382.25 1110.64L400.71 1183.08L376.05 1156.91L382.25 1110.64Z" />
			<path id="&lt;Path&gt;" class="shp7" d="M355.25 1110.64L330.77 1102.75L317.85 1083.19L355.25 1110.64Z" />
			<path id="&lt;Path&gt;" class="shp3" d="M790.52 542.28L772.74 615.7L697.69 587.57L790.52 542.28Z" />
			<path id="&lt;Path&gt;" class="shp1" d="M695.27 666.03L737.11 638.85L697.69 587.57L695.27 666.03Z" />
			<path id="&lt;Path&gt;" class="shp0" d="M772.74 615.7L737.11 638.85L697.69 587.57L772.74 615.7Z" />
			<path id="&lt;Path&gt;" class="shp1" d="M772.74 615.7L737.11 638.85L762.12 666.46L772.74 615.7Z" />
			<path id="&lt;Path&gt;" class="shp3" d="M695.27 666.03L737.11 638.85L762.12 666.46L695.27 666.03Z" />
			<path id="&lt;Path&gt;" class="shp6" d="M719.27 739.53L762.12 666.46L695.27 666.03L719.27 739.53Z" />
			<path id="&lt;Path&gt;" class="shp5" d="M719.27 739.53L762.12 666.46L789.17 676.74L719.27 739.53Z" />
			<path id="&lt;Path&gt;" class="shp6" d="M719.27 739.53L854 746.55L789.17 676.74L719.27 739.53Z" />
			<path id="&lt;Path&gt;" class="shp0" d="M719.27 739.53L854 746.55L758.07 779.41L719.27 739.53Z" />
			<path id="&lt;Path&gt;" class="shp5" d="M877.68 723.41L854 746.55L789.17 676.74L877.68 723.41Z" />
			<path id="&lt;Path&gt;" class="shp2" d="M847.66 789.05L854 746.55L758.07 779.41L847.66 789.05Z" />
			<path id="&lt;Path&gt;" class="shp7" d="M847.66 789.05L878.75 813.07L758.07 779.41L847.66 789.05Z" />
			<path id="&lt;Path&gt;" class="shp0" d="M847.66 789.05L854 746.55L925.51 823.72L847.66 789.05Z" />
			<path id="&lt;Path&gt;" class="shp8" d="M847.66 789.05L878.75 813.07L925.51 823.72L847.66 789.05Z" />
			<path id="&lt;Path&gt;" class="shp6" d="M935.8 782.98L854 746.55L925.51 823.72L935.8 782.98Z" />
			<path id="&lt;Path&gt;" class="shp5" d="M935.8 782.98L854 746.55L903.82 739.59L935.8 782.98Z" />
			<path id="&lt;Path&gt;" class="shp6" d="M877.68 723.41L854 746.55L903.82 739.59L877.68 723.41Z" />
			<path id="&lt;Path&gt;" class="shp3" d="M935.8 782.98L961.48 794.54L925.51 823.72L935.8 782.98Z" />
			<path id="&lt;Path&gt;" class="shp9" d="M935.8 782.98L961.48 794.54L903.82 739.59L935.8 782.98Z" />
			<path id="&lt;Path&gt;" class="shp2" d="M955.93 819.32L961.48 794.54L925.51 823.72L955.93 819.32Z" />
			<path id="&lt;Path&gt;" class="shp0" d="M955.93 819.32L897.77 880.53L925.51 823.72L955.93 819.32Z" />
			<path id="&lt;Path&gt;" class="shp7" d="M878.75 813.07L897.77 880.53L925.51 823.72L878.75 813.07Z" />
			<path id="&lt;Path&gt;" class="shp8" d="M878.75 813.07L813.45 860.74L875.52 831.46L878.75 813.07Z" />
			<path id="&lt;Path&gt;" class="shp0" d="M897.77 880.53L813.45 860.74L875.52 831.46L897.77 880.53Z" />
			<path id="&lt;Path&gt;" class="shp3" d="M897.77 880.53L813.45 860.74L842.92 910.07L897.77 880.53Z" />
			<path id="&lt;Path&gt;" class="shp8" d="M787.35 922.4L813.45 860.74L815.33 900.34L787.35 922.4Z" />
			<path id="&lt;Path&gt;" class="shp7" d="M842.92 910.07L813.45 860.74L815.33 900.34L842.92 910.07Z" />
			<path id="&lt;Path&gt;" class="shp2" d="M897.77 880.53L859.05 919.62L842.92 910.07L897.77 880.53Z" />
			<path id="&lt;Path&gt;" class="shp7" d="M787.35 922.4L859.05 919.62L842.92 910.07L787.35 922.4Z" />
			<path id="&lt;Path&gt;" class="shp0" d="M787.35 922.4L808.97 941.75L754.52 967.22L787.35 922.4Z" />
			<path id="&lt;Path&gt;" class="shp2" d="M787.35 922.4L808.97 941.75L859.05 919.62L787.35 922.4Z" />
			<path id="&lt;Path&gt;" class="shp7" d="M728.01 1022.7L808.97 941.75L754.52 967.22L728.01 1022.7Z" />
			<path id="&lt;Path&gt;" class="shp8" d="M728.01 1022.7L723.51 996.09L754.52 967.22L728.01 1022.7Z" />
			<path id="&lt;Path&gt;" class="shp2" d="M710.01 1022.7L705.51 996.09L680.55 1011.2L710.01 1022.7Z" />
			<path id="&lt;Path&gt;" class="shp0" d="M728.01 1022.7L808.97 941.75L859.05 919.62L728.01 1022.7Z" />
			<path id="&lt;Path&gt;" class="shp3" d="M728.01 1022.7L790.21 990.96L859.05 919.62L728.01 1022.7Z" />
			<path id="&lt;Path&gt;" class="shp2" d="M728.01 1022.7L790.21 990.96L772.26 1021.85L728.01 1022.7Z" />
			<path id="&lt;Path&gt;" class="shp0" d="M728.01 1022.7L734.02 1071.58L772.26 1021.85L728.01 1022.7Z" />
			<path id="&lt;Path&gt;" class="shp0" d="M673.53 1037.08L686 1027.8L734.02 1071.58L673.53 1037.08Z" />
			<path id="&lt;Path&gt;" class="shp8" d="M673.53 1037.08L675.79 1052.98L734.02 1071.58L673.53 1037.08Z" />
			<path id="&lt;Path&gt;" class="shp2" d="M787.51 1087.61L734.02 1071.58L772.26 1021.85L787.51 1087.61Z" />
			<path id="&lt;Path&gt;" class="shp6" d="M787.51 1087.61L734.02 1071.58L812.8 1119.8L787.51 1087.61Z" />
			<path id="&lt;Path&gt;" class="shp3" d="M815.46 1134.39L734.02 1071.58L812.8 1119.8L815.46 1134.39Z" />
			<path id="&lt;Path&gt;" class="shp2" d="M815.46 1134.39L734.02 1071.58L781.21 1129.04L815.46 1134.39Z" />
			<path id="&lt;Path&gt;" class="shp0" d="M749.41 1108.96L734.02 1071.58L781.21 1129.04L749.41 1108.96Z" />
			<path id="&lt;Path&gt;" class="shp8" d="M807.02 555.03L790.52 542.28L817.85 497.26L807.02 555.03Z" />
			<path id="&lt;Path&gt;" class="shp7" d="M807.02 555.03L834.38 544.26L846.36 589.08L807.02 555.03Z" />
			<path id="&lt;Path&gt;" class="shp0" d="M807.02 555.03L834.38 544.26L817.85 497.26L807.02 555.03Z" />
			<path id="&lt;Path&gt;" class="shp3" d="M855.22 534.88L834.38 544.26L817.85 497.26L855.22 534.88Z" />
			<path id="&lt;Path&gt;" class="shp8" d="M871.27 588.03L834.38 544.26L846.36 589.08L871.27 588.03Z" />
			<path id="&lt;Path&gt;" class="shp7" d="M871.27 588.03L834.38 544.26L855.22 534.88L871.27 588.03Z" />
			<path id="&lt;Path&gt;" class="shp8" d="M871.27 588.03L903.69 542.18L885.45 530.19L871.27 588.03Z" />
			<path id="&lt;Path&gt;" class="shp0" d="M871.27 588.03L855.22 534.88L885.45 530.19L871.27 588.03Z" />
			<path id="&lt;Path&gt;" class="shp5" d="M904.21 475.99L855.22 534.88L885.45 530.19L904.21 475.99Z" />
			<path id="&lt;Path&gt;" class="shp3" d="M904.21 475.99L929.23 484.33L885.45 530.19L904.21 475.99Z" />
			<path id="&lt;Path&gt;" class="shp7" d="M903.69 542.18L929.23 484.33L885.45 530.19L903.69 542.18Z" />
			<path id="&lt;Path&gt;" class="shp8" d="M904.21 475.99L929.23 484.33L943.3 460.88L904.21 475.99Z" />
			<path id="&lt;Path&gt;" class="shp7" d="M904.21 475.99L921.41 422.31L943.3 460.88L904.21 475.99Z" />
			<path id="&lt;Path&gt;" class="shp0" d="M957.89 442.12L921.41 422.31L943.3 460.88L957.89 442.12Z" />
			<path id="&lt;Path&gt;" class="shp7" d="M957.89 442.12L921.41 422.31L959.98 419.18L957.89 442.12Z" />
			<path id="&lt;Path&gt;" class="shp3" d="M931.31 391.04L921.41 422.31L959.98 419.18L931.31 391.04Z" />
			<path id="&lt;Path&gt;" class="shp5" d="M931.31 391.04L921.41 422.31L912.55 406.15L931.31 391.04Z" />
			<path id="&lt;Path&gt;" class="shp3" d="M902.13 428.56L921.41 422.31L904.21 475.99L902.13 428.56Z" />
			<path id="&lt;Path&gt;" class="shp4" d="M556.9 518.65L523.52 485.65L541.77 478.03L556.9 518.65Z" />
			<path id="&lt;Path&gt;" class="shp7" d="M743.27 260.64L703.28 231.67L729.28 229.24L743.27 260.64Z" />
			<path id="&lt;Path&gt;" class="shp3" d="M409.58 479.32L385.22 479.87L430.41 440.06L409.58 479.32Z" />
			<path id="&lt;Path&gt;" class="shp3" d="M459.67 849.65L437.27 849.03L512.11 811.26L459.67 849.65Z" />
			<path id="&lt;Path&gt;" class="shp3" d="M291.77 1038.78L276.02 1044.78L330.77 1079.28L291.77 1038.78Z" />
		</g>
	</g>
</svg>