<svg width="299" height="107" viewBox="0 0 299 107" fill="none" xmlns="http://www.w3.org/2000/svg">
<text fill="white" xml:space="preserve" style="white-space: pre" font-family="Roboto" font-size="91" font-weight="bold" letter-spacing="0em"><tspan x="66" y="84.6035">We</tspan></text>
<text fill="#ED553B" xml:space="preserve" style="white-space: pre" font-family="Roboto" font-size="91" font-weight="bold" letter-spacing="0em"><tspan x="193.436" y="84.6035">Fit</tspan></text>
<path d="M53.9369 74.7132C53.3668 70.4718 50.0375 68.8367 49.8973 68.7713C49.5349 68.593 49.116 68.5839 48.7463 68.7349C48.3766 68.8804 48.087 69.1841 47.9449 69.557C47.5989 70.49 46.4278 73.1872 45.1911 74.424C44.2823 75.3297 42.5394 76.5974 41.1388 77.6141C39.924 78.4998 38.9642 79.1964 38.4707 79.6857C36.8479 81.308 35.5949 81.8555 34.4256 81.459C32.9886 80.9788 25.658 75.5116 20.9136 71.785C20.298 71.2994 19.4002 71.4067 18.9157 72.0178C18.4276 72.6361 18.5351 73.5292 19.1506 74.0184C21.1267 75.5698 31.0891 83.3432 33.5168 84.1562C36.8934 85.2802 39.5999 82.583 40.4868 81.699C40.8201 81.3662 41.8327 80.6278 42.8144 79.9167C44.3716 78.7836 46.14 77.4995 47.2073 76.4319C48.3219 75.3206 49.2544 73.611 49.8645 72.3179C50.3982 72.9162 50.9409 73.8202 51.1103 75.0897C51.5947 78.6945 53.0772 83.4669 53.1392 83.667C53.3778 84.4272 54.19 84.8328 54.924 84.6018C55.6744 84.369 56.0933 83.5687 55.8583 82.823C55.8456 82.7739 54.3867 78.0815 53.9369 74.7132Z" fill="#FFC400"/>
<path d="M23.0554 68.202C24.9277 68.6821 30.2768 70.4063 32.4933 72.6198C32.7683 72.8908 33.1307 73.0381 33.5004 73.0381C33.7226 73.0381 33.9448 72.9835 34.1543 72.8762C34.7043 72.5925 35.0084 71.9868 34.9064 71.3794C34.595 69.5351 34.1361 64.2462 35.7023 61.9218C37.8423 58.7481 40.7309 59.2555 40.842 59.2864C41.3228 59.3792 41.8254 59.2318 42.1697 58.8772C42.5102 58.5225 42.6414 58.0151 42.5175 57.5386C42.503 57.4731 40.9403 51.011 44.2568 48.8594C45.8632 47.8209 47.3311 47.4063 48.6261 47.0389C50.5275 46.5005 52.682 45.8949 52.682 43.0649C52.682 40.0548 49.6241 39.5892 47.8265 39.5183C46.2839 36.6774 43.5666 30.3935 44.7959 26.3977C44.969 25.8303 44.7686 25.2119 44.2969 24.8518C44.1712 24.7536 41.7089 22.8111 41.8601 20.0302C43.1914 20.6286 45.1383 21.0651 47.4167 20.2121L48.0943 19.9447C50.2379 19.079 53.1756 17.895 57.8945 20.1321C58.6084 20.4704 59.4553 20.1666 59.7923 19.4555C60.1292 18.7498 59.8269 17.9005 59.1166 17.564C53.2648 14.7885 49.36 16.3636 47.0288 17.3057L46.4078 17.5494C43.8962 18.5006 42.0039 16.8201 41.9329 16.7546C41.596 16.4382 41.1279 16.3054 40.6689 16.3982C40.2136 16.4927 39.833 16.8019 39.6509 17.2257C37.9152 21.2342 40.0279 24.7263 41.84 26.4832C40.5852 32.8525 45.5427 41.2788 45.7649 41.6517C46.0235 42.0827 46.4879 42.3483 46.9888 42.3483C47.6572 42.3483 49.8317 42.3974 49.8317 43.0649C49.8317 43.6378 49.8318 43.7396 47.852 44.2998C46.5098 44.6817 44.6739 45.1983 42.7069 46.4732C39.0371 48.8558 39.0899 53.7828 39.4323 56.451C37.7385 56.6328 35.2889 57.4513 33.3438 60.3304C31.8358 62.562 31.6482 66.0377 31.7666 68.5967C28.3171 66.6233 23.9934 65.5084 23.7585 65.4447C22.9972 65.2465 22.2177 65.7085 22.0264 66.4723C21.8297 67.2326 22.2942 68.011 23.0554 68.202Z" fill="#FFC400"/>
<path d="M117.882 66.496C117.257 66.0104 116.363 66.1213 115.878 66.7343C110.89 73.0999 104.65 80.2586 102.865 81.2407C100.815 80.1513 94.4055 70.9574 93.7644 69.5224C93.3201 68.4148 92.4513 67.6818 91.4369 67.5527C90.7921 67.4727 89.5409 67.5836 88.3425 69.2114C87.5102 70.3427 86.4794 73.32 85.0005 77.7341C84.2938 79.8366 83.6309 81.8191 83.2484 82.6448C82.9133 83.3559 83.2211 84.2016 83.9387 84.5345C84.6326 84.8582 85.4904 84.5709 85.8292 83.8452C86.279 82.8776 86.9365 80.9133 87.7033 78.6362C88.6194 75.8954 90.009 71.7522 90.6391 70.8938C90.8486 70.61 91.0125 70.4682 91.0234 70.3918C91.0489 70.4336 91.089 70.4955 91.1218 70.5828C91.3513 71.1557 99.3539 84.138 102.884 84.138C104.851 84.138 109.977 78.8763 118.12 68.4894C118.607 67.8728 118.499 66.9798 117.882 66.496Z" fill="#FFC400"/>
<path d="M94.5257 56.1709C95.9445 57.8332 95.7842 61.9927 95.6167 63.3223C95.5365 63.9534 95.9008 64.5699 96.4872 64.8155C96.6657 64.89 100.846 66.7215 102.002 73.6419C102.086 74.153 102.443 74.5749 102.927 74.7477C103.417 74.9223 103.96 74.815 104.348 74.4731L114.678 65.3647C115.268 64.8464 115.323 63.9443 114.802 63.3568C114.281 62.7657 113.381 62.713 112.789 63.2331L104.259 70.7574C102.831 65.9267 100.02 63.6187 98.5307 62.6948C98.6636 60.7705 98.6728 56.6419 96.6876 54.3212C94.2179 51.4421 91.9304 50.3763 86.483 49.576C82.9279 49.0559 83.0153 47.1844 83.0954 45.3711C83.0954 45.3438 83.1009 45.3183 83.1009 45.291C83.3195 45.2728 83.5908 45.2601 83.7821 45.2547C84.7655 45.2201 86.1133 45.1674 86.7016 44.0197C88.7796 39.9675 89.224 30.5809 89.3005 28.3711C90.2439 27.007 91.1782 24.6153 89.7941 22.642C88.1385 20.2867 82.4106 17.162 76.4387 17.6331C72.2024 17.9805 69.456 20.5759 68.07 22.3146C67.0391 21.478 65.4091 20.6031 63.1179 20.6031C60.9634 20.6031 58.7778 21.8162 57.2753 23.8514C55.414 26.3668 54.9295 29.7006 55.944 32.9889C58.3735 40.8823 63.4203 42.2501 63.6334 42.3046C64.1269 42.4338 64.6442 42.281 64.9993 41.9227C65.3563 41.5626 65.4947 41.0388 65.3599 40.5495C64.2034 36.3263 63.2108 31.1138 63.5805 30.088C63.7663 29.5896 64.0213 29.4514 64.1998 29.3896C64.5586 29.2695 65.0794 29.3277 65.6313 29.5405C65.6677 32.2159 66.3525 39.7092 72.6195 42.8284C72.4028 45.4056 71.6852 48.7976 70.5014 49.7888L70.1808 50.0544C65.1341 54.2775 63.158 56.6638 64.9829 73.5619C65.3198 76.672 66.0283 82.1519 66.1212 82.854C66.1831 83.5833 66.7933 84.1562 67.5418 84.1562C68.4051 84.1562 69.0953 83.3832 68.946 82.4993C68.8586 81.8318 68.1501 76.3573 67.8168 73.2545C66.0793 57.193 67.937 55.6416 72.0112 52.2333L72.3299 51.9659C75.1565 49.6015 75.4953 42.7575 75.5262 41.9845C75.5481 41.3807 75.1893 40.8296 74.6229 40.6059C68.0281 38.0287 68.4852 28.8476 68.4889 28.7548C68.5198 28.2292 68.2576 27.7309 67.8077 27.4562C66.2669 26.5178 64.6132 26.2431 63.2691 26.6996C62.1727 27.0779 61.3586 27.9 60.9142 29.0822C60.3186 30.6609 61.0071 34.6076 61.7156 37.7177C60.661 36.6064 59.4991 34.8604 58.6631 32.1541C57.6432 28.8421 58.7924 26.5905 59.5665 25.5393C60.5226 24.2516 61.8795 23.4477 63.1179 23.4477C65.7916 23.4477 67.0027 25.2519 67.0446 25.3137C67.3141 25.7448 67.7731 25.9903 68.3031 25.9849C68.8112 25.9667 69.2738 25.6793 69.5142 25.2282C69.5361 25.1901 71.8892 20.8614 76.67 20.4704C81.7386 20.0611 86.3774 22.7274 87.4628 24.2734C88.1294 25.2282 86.7999 26.967 86.7872 26.9815C86.585 27.2253 86.4739 27.5326 86.4648 27.8473C86.3992 30.7718 85.8783 38.8781 84.3339 42.3756C84.1372 42.3937 83.8713 42.4065 83.6764 42.4101C82.7403 42.4465 80.2652 42.5392 80.2652 44.7763L80.2524 45.2419C80.1723 46.9534 79.9683 51.4948 86.0696 52.3897C91.1345 53.1354 92.6881 54.0284 94.5257 56.1709Z" fill="#FFC400"/>
<path fill-rule="evenodd" clip-rule="evenodd" d="M10.374 68.1129C7.82785 68.1129 5.75525 66.0468 5.75525 63.4987C5.75525 60.956 7.82785 58.8899 10.374 58.8899C12.9201 58.8899 14.9927 60.956 14.9927 63.4987C14.9927 66.0468 12.9201 68.1129 10.374 68.1129ZM10.374 61.7345C9.39779 61.7345 8.60371 62.5256 8.60371 63.4987C8.60371 64.4772 9.39779 65.2683 10.374 65.2683C11.3502 65.2683 12.1443 64.4772 12.1443 63.4987C12.1443 62.5256 11.3502 61.7345 10.374 61.7345ZM123.265 60.5796C120.845 60.5796 118.874 58.6098 118.874 56.1927C118.874 53.7756 120.845 51.8113 123.265 51.8113C125.688 51.8113 127.655 53.7756 127.655 56.1927C127.655 58.6098 125.688 60.5796 123.265 60.5796ZM123.265 54.6558C122.417 54.6558 121.721 55.3433 121.721 56.1927C121.721 57.0421 122.417 57.735 123.265 57.735C124.116 57.735 124.806 57.0421 124.806 56.1927C124.806 55.3433 124.116 54.6558 123.265 54.6558Z" fill="#BBBDBF"/>
<path fill-rule="evenodd" clip-rule="evenodd" d="M10.3739 73.8583C4.65334 73.8583 0 69.215 0 63.4987C0 57.7877 4.65334 53.1444 10.3739 53.1444C16.0946 53.1444 20.7461 57.7877 20.7461 63.4987C20.7461 69.215 16.0946 73.8583 10.3739 73.8583ZM10.3739 55.989C6.2251 55.989 2.85029 59.3573 2.85029 63.4987C2.85029 67.6454 6.2251 71.0156 10.3739 71.0156C14.5228 71.0156 17.8994 67.6454 17.8994 63.4987C17.8994 59.3573 14.5228 55.989 10.3739 55.989ZM123.265 65.9122C117.9 65.9122 113.532 61.5526 113.532 56.1927C113.532 50.8328 117.9 46.4732 123.265 46.4732C128.634 46.4732 133 50.8328 133 56.1927C133 61.5526 128.634 65.9122 123.265 65.9122ZM123.265 49.3178C119.47 49.3178 116.381 52.4024 116.381 56.1927C116.381 59.983 119.47 63.0676 123.265 63.0676C127.063 63.0676 130.152 59.983 130.152 56.1927C130.152 52.4024 127.063 49.3178 123.265 49.3178Z" fill="#8957FF"/>
<path fill-rule="evenodd" clip-rule="evenodd" d="M10.374 73.2891C4.96843 73.2891 0.570068 68.8986 0.570068 63.4987C0.570068 58.1042 4.96843 53.7137 10.374 53.7137C15.7795 53.7137 20.1779 58.1042 20.1779 63.4987C20.1779 68.8986 15.7795 73.2891 10.374 73.2891ZM10.374 55.4197C5.91185 55.4197 2.28024 59.0463 2.28024 63.4987C2.28024 67.9565 5.91185 71.5831 10.374 71.5831C14.8361 71.5831 18.4677 67.9565 18.4677 63.4987C18.4677 59.0463 14.8361 55.4197 10.374 55.4197Z" fill="#B57DFF"/>
<path fill-rule="evenodd" clip-rule="evenodd" d="M123.265 65.3447C118.211 65.3447 114.103 61.2416 114.103 56.1927C114.103 51.1474 118.211 47.0425 123.265 47.0425C128.318 47.0425 132.43 51.1474 132.43 56.1927C132.43 61.2416 128.318 65.3447 123.265 65.3447ZM123.265 48.7485C119.155 48.7485 115.811 52.0896 115.811 56.1927C115.811 60.2995 119.155 63.6369 123.265 63.6369C127.374 63.6369 130.722 60.2995 130.722 56.1927C130.722 52.0896 127.374 48.7485 123.265 48.7485Z" fill="#B57DFF"/>
<path fill-rule="evenodd" clip-rule="evenodd" d="M10.374 72.7216C5.28352 72.7216 1.14014 68.5839 1.14014 63.4987C1.14014 58.4152 5.28352 54.2812 10.374 54.2812C15.4662 54.2812 19.6078 58.4152 19.6078 63.4987C19.6078 68.5839 15.4662 72.7216 10.374 72.7216ZM10.374 54.8505C5.59678 54.8505 1.71019 58.7299 1.71019 63.4987C1.71019 68.2729 5.59678 72.1524 10.374 72.1524C15.1512 72.1524 19.0378 68.2729 19.0378 63.4987C19.0378 58.7299 15.1512 54.8505 10.374 54.8505Z" fill="#E8BAFF"/>
<path fill-rule="evenodd" clip-rule="evenodd" d="M123.265 64.7754C118.526 64.7754 114.673 60.9251 114.673 56.1927C114.673 51.4603 118.526 47.6118 123.265 47.6118C128.006 47.6118 131.86 51.4603 131.86 56.1927C131.86 60.9251 128.006 64.7754 123.265 64.7754ZM123.265 48.1792C118.843 48.1792 115.243 51.7749 115.243 56.1927C115.243 60.6105 118.843 64.2062 123.265 64.2062C127.691 64.2062 131.29 60.6105 131.29 56.1927C131.29 51.7749 127.691 48.1792 123.265 48.1792Z" fill="#E8BAFF"/>
<path d="M66.6949 82.854C66.1722 78.8345 65.7897 75.7153 65.5493 73.4982C63.7535 56.8911 65.6641 54.5758 70.5505 50.4909L70.8674 50.2235C72.4556 48.8958 73.0657 44.6235 73.2169 42.4829C66.5802 39.4564 66.1795 31.372 66.1995 29.1677C65.3909 28.7712 64.5968 28.6512 64.0122 28.8512C63.566 29.0058 63.2509 29.3441 63.0469 29.8825C62.5679 31.1538 63.79 36.972 64.8081 40.7005C64.8882 40.9933 64.8081 41.3098 64.595 41.5226C64.3819 41.7408 64.065 41.8281 63.7754 41.7535C63.5732 41.7008 58.8252 40.4149 56.4867 32.8252C55.5251 29.7042 55.9804 26.5578 57.7343 24.1897C59.1293 22.3 61.1419 21.1724 63.1179 21.1724C65.6185 21.1724 67.2613 22.2837 68.1556 23.1403C69.3175 21.5325 72.0367 18.5679 76.4824 18.2024C82.274 17.7313 87.7524 20.7232 89.3278 22.9712C90.7466 24.9936 89.2823 27.4035 88.7341 28.171C88.6813 29.9716 88.2769 39.6911 86.1934 43.7615C85.7618 44.6108 84.6982 44.6508 83.7602 44.6854C83.3759 44.6999 82.6602 44.7272 82.4908 44.8509C82.5436 44.94 82.5363 45.1364 82.5272 45.3492C82.4471 47.1171 82.336 49.5451 86.4029 50.1399C91.6864 50.9128 93.8937 51.935 96.2559 54.6904C98.2138 56.9839 98.0681 61.3835 97.9333 63.0022C99.2865 63.7624 102.567 66.1304 103.947 71.7922L113.168 63.6587C113.523 63.3532 114.066 63.3786 114.374 63.7351C114.685 64.0861 114.654 64.6245 114.299 64.9391L103.969 74.0457C103.738 74.2548 103.408 74.3167 103.118 74.2094C102.825 74.1075 102.612 73.8547 102.563 73.5473C101.348 66.2759 96.897 64.3699 96.7058 64.2898C96.3506 64.1443 96.1321 63.7751 96.1813 63.3932C96.3725 61.8982 96.5236 57.6332 94.9555 55.8017C93.1051 53.6373 91.4714 52.6061 86.1533 51.8277C80.5602 51.0074 80.7424 46.9898 80.8225 45.2692C80.8261 45.0873 80.8352 44.9164 80.8352 44.7763C80.8352 43.0867 82.6966 43.0212 83.6965 42.9794C84.0443 42.9667 84.6271 42.9448 84.7783 42.8648C86.7507 38.9272 87.0348 27.9673 87.0348 27.86C87.0385 27.669 87.1113 27.4872 87.2261 27.3398C87.2443 27.3235 88.8634 25.2883 87.9291 23.9497C86.7762 22.3091 81.877 19.4555 76.6208 19.9047C71.534 20.3176 69.0334 24.9191 69.0116 24.9627C68.864 25.2337 68.589 25.4065 68.2849 25.4156C67.9643 25.4029 67.6875 25.2737 67.5272 25.0155C67.4744 24.9318 66.1248 22.8784 63.1179 22.8784C61.7046 22.8784 60.1693 23.766 59.1075 25.2028C57.6814 27.1307 57.3208 29.7279 58.1204 32.3214C59.3698 36.3846 61.3276 38.3761 62.6845 39.3182C61.9396 36.3318 60.7849 31.0374 61.446 29.2823C61.8303 28.2656 62.526 27.5581 63.4567 27.238C64.635 26.8288 66.1176 27.0925 67.5145 27.94C67.7822 28.1055 67.9388 28.4075 67.9206 28.7221C67.9152 28.8203 67.4271 38.4034 74.4134 41.1352C74.7522 41.2697 74.9689 41.6026 74.9562 41.9663C74.9307 42.7138 74.601 49.3214 71.9657 51.5312L71.6451 51.7968C67.4125 55.3397 65.4801 56.9529 67.2486 73.3164C67.6074 76.6283 68.3887 82.6375 68.3905 82.6375C68.4615 83.1468 68.2047 83.4323 67.6219 83.4942C67.061 83.5542 66.7514 83.3396 66.6949 82.854Z" fill="#FFEC4A"/>
<path d="M84.1791 84.0198C83.7511 83.8197 83.5635 83.3123 83.7638 82.8849C84.1609 82.0319 84.8329 80.0331 85.5396 77.9124C86.9583 73.6856 88.0238 70.61 88.8069 69.5479C89.7722 68.2238 90.712 68.0456 91.3658 68.1165C92.1708 68.2202 92.8702 68.824 93.2344 69.7352C93.8537 71.2593 101.142 81.6372 102.896 81.8627C104.253 81.579 110.81 74.1257 116.328 67.0853C116.618 66.7161 117.155 66.6506 117.53 66.9434C117.9 67.2326 117.965 67.7709 117.672 68.1402C114.035 72.7798 105.309 83.5687 102.883 83.5687C99.7637 83.5687 91.8867 70.9538 91.6499 70.37C91.5261 70.059 91.3257 69.8334 91.1527 69.8098C90.9433 69.8061 90.6136 69.9698 90.182 70.5573C89.4954 71.4867 88.1476 75.5116 87.1605 78.4544C86.4028 80.7133 85.749 82.663 85.3119 83.6051C85.1079 84.0398 84.587 84.2144 84.1791 84.0198Z" fill="#FFEC4A"/>
<path d="M53.6819 83.4996C53.62 83.2996 52.1557 78.5744 51.6749 75.0151C51.4199 73.1036 50.4036 71.9432 49.6769 71.3394C49.1306 72.6016 48.0742 74.7623 46.8012 76.0318C45.7667 77.0685 44.0201 78.3343 42.4775 79.4547C41.4339 80.2149 40.4486 80.9297 40.0843 81.2935C39.2593 82.121 36.7441 84.6363 33.7008 83.6178C31.3094 82.8194 20.706 74.5167 19.5058 73.571C19.1343 73.2818 19.0705 72.7435 19.3601 72.3742C19.6533 72.0014 20.1906 71.9396 20.5621 72.2269C25.1863 75.8645 32.6444 81.4644 34.2435 82.001C36.0648 82.6102 37.7622 81.2007 38.875 80.0894C39.334 79.6275 40.2774 78.9436 41.4739 78.0779C42.8909 77.0448 44.6521 75.7662 45.5955 74.8278C47.1709 73.2509 48.4658 69.788 48.4804 69.7534C48.5641 69.5297 48.739 69.3478 48.9612 69.2587C49.187 69.1696 49.4347 69.1805 49.6496 69.2824C49.7826 69.3442 52.8405 70.8501 53.3705 74.7877C53.8294 78.2052 55.2992 82.9431 55.3156 82.9922C55.454 83.4414 55.2045 83.9216 54.7528 84.058C54.2684 84.2017 53.8149 83.9252 53.6819 83.4996Z" fill="#FFEC4A"/>
<path d="M33.5004 72.4688C33.2801 72.4688 33.0597 72.3797 32.8958 72.2142C30.1183 69.4369 23.2631 67.6691 23.1957 67.6509C22.7386 67.5345 22.4635 67.0725 22.5783 66.6142C22.693 66.1577 23.1611 65.8849 23.6182 65.9977C23.8714 66.0631 28.9637 67.3799 32.4113 69.6588C32.211 67.1707 32.1873 63.0585 33.8155 60.6505C35.8881 57.5804 38.549 57.0111 40.0825 56.9711C39.6982 54.6377 39.3121 49.3523 43.0166 46.9534C44.9107 45.7221 46.6281 45.2383 48.0087 44.8509C50.0102 44.2816 50.4018 44.0816 50.4018 43.0649C50.4018 42.6829 50.4018 41.779 46.9888 41.779C46.6882 41.779 46.4096 41.6208 46.2548 41.3625C46.0344 40.9897 41.0168 32.4597 42.4647 26.2868C40.7309 24.7317 38.4889 21.3488 40.1717 17.4512C40.2828 17.1984 40.5087 17.0165 40.78 16.9583C41.0514 16.8929 41.3374 16.9802 41.5395 17.1675C41.6306 17.2475 43.7378 19.1536 46.6099 18.0823L47.2419 17.8332C49.4912 16.9274 53.2557 15.416 58.8725 18.0787C59.2987 18.2788 59.4808 18.7898 59.2769 19.2154C59.0765 19.6374 58.5666 19.8247 58.1404 19.621C53.1956 17.2748 49.9975 18.5625 47.883 19.4173L47.2146 19.6792C44.6739 20.6341 42.5831 19.8429 41.4029 19.159C40.6107 22.6911 43.8034 25.1846 43.9491 25.301C44.235 25.5193 44.3552 25.8866 44.2477 26.2286C42.7743 31.0337 46.4988 38.2779 47.4914 40.073C49.1178 40.1039 52.112 40.3804 52.112 43.0649C52.112 45.4638 50.3454 45.9622 48.4713 46.4914C47.2018 46.8515 45.6246 47.2953 43.9472 48.3847C40.2373 50.7873 41.9511 57.6113 41.9693 57.6823C42.0404 57.966 41.9602 58.2715 41.7544 58.4862C41.5504 58.699 41.2481 58.7881 40.9604 58.7262C40.8292 58.699 37.5965 58.1006 35.2306 61.6053C33.2145 64.5936 34.3309 71.4012 34.3437 71.4721C34.4056 71.8377 34.2235 72.2015 33.892 72.3706C33.7663 72.4361 33.6334 72.4688 33.5004 72.4688Z" fill="#FFEC4A"/>
<path d="M67.5418 83.0322C67.4016 83.0322 67.2777 82.9267 67.2613 82.783C67.2522 82.7212 66.4727 76.7211 66.1176 73.4364C64.2836 56.4728 66.5001 54.6195 70.9148 50.9274L71.2317 50.66C73.3098 48.9213 73.7414 43.2558 73.8088 42.1227C66.7878 39.2109 66.7423 30.2062 66.7787 28.8294C65.7242 28.2292 64.6314 28.0419 63.8246 28.3147C63.2199 28.522 62.7737 28.984 62.5115 29.6824C61.8886 31.3357 63.5623 38.3052 64.2617 40.8514C64.2872 40.9478 64.2581 41.0515 64.1907 41.1261C64.116 41.1988 64.0158 41.2297 63.9138 41.2025C63.7263 41.1533 59.2769 39.9457 57.0294 32.6561C56.1261 29.7133 56.5486 26.7487 58.1932 24.528C59.4627 22.8075 61.3495 21.7417 63.118 21.7417C66.001 21.7417 67.6292 23.3222 68.2303 24.0515C69.0025 22.8511 71.7435 19.1627 76.5316 18.768C82.2741 18.3133 87.543 21.4161 88.8598 23.2949C90.1765 25.1719 88.5265 27.5144 88.175 27.98C88.1385 29.1495 87.7998 39.3801 85.6871 43.505C85.4066 44.0543 84.5962 44.087 83.7384 44.1179C82.6729 44.1579 81.9754 44.2252 81.9754 44.7763C81.9754 44.9346 81.9663 45.1183 81.9572 45.322C81.877 47.0825 81.7441 50.0289 86.3191 50.7C91.9669 51.5312 93.8136 52.717 95.8207 55.0633C97.8277 57.4058 97.4489 62.2419 97.3323 63.3259C98.2939 63.7879 102.295 66.0904 103.596 72.8599L113.547 64.0861C113.667 63.9843 113.846 63.9934 113.948 64.108C114.053 64.228 114.041 64.4062 113.926 64.5135L103.596 73.6201C103.516 73.6856 103.408 73.7074 103.31 73.6765C103.213 73.6419 103.142 73.5564 103.124 73.4546C101.851 65.8322 96.9681 63.7842 96.9207 63.766C96.7987 63.7169 96.7277 63.5914 96.7459 63.4641C96.7495 63.4059 97.4416 57.8332 95.389 55.4343C93.4384 53.1535 91.7356 52.0732 86.2335 51.2639C81.1522 50.5182 81.3124 46.9934 81.3871 45.2965C81.3962 45.1001 81.4053 44.9273 81.4053 44.7763C81.4053 43.6378 82.6875 43.5887 83.7147 43.5487C84.3121 43.5268 85.0497 43.4996 85.179 43.2467C87.3153 39.0727 87.6049 27.9855 87.6049 27.8746C87.6086 27.8127 87.6322 27.7491 87.6723 27.7C87.6887 27.6781 89.581 25.3137 88.3917 23.6205C87.1423 21.8381 82.1211 18.8553 76.5771 19.3373C71.1825 19.7811 68.5344 24.6462 68.5071 24.6954C68.4579 24.7845 68.365 24.8427 68.263 24.8481C68.1501 24.8299 68.0663 24.799 68.0135 24.7135C67.9498 24.6153 66.4636 22.3091 63.118 22.3091C61.5262 22.3091 59.816 23.2876 58.6486 24.8645C57.1132 26.9397 56.7217 29.7188 57.5758 32.4869C59.2951 38.0742 62.3785 39.9348 63.566 40.464C63.0378 38.4379 61.2712 31.3666 61.9778 29.4823C62.3002 28.6293 62.8775 28.0419 63.6425 27.7763C64.6624 27.4344 65.9628 27.6599 67.2158 28.4293C67.3051 28.482 67.3597 28.5802 67.3542 28.6875C67.3451 28.7894 66.8242 38.7799 74.2095 41.6699C74.3206 41.7135 74.3916 41.8208 74.388 41.9445C74.3789 42.2282 74.0875 49.0068 71.596 51.0947L71.2809 51.3621C66.8862 55.0378 64.8791 56.7129 66.6822 73.3746C67.0391 76.6538 67.8168 82.6503 67.8259 82.7121C67.8441 82.8667 67.7349 83.0104 67.5782 83.0286C67.5673 83.0322 67.5546 83.0322 67.5418 83.0322Z" fill="white"/>
<path d="M84.4177 83.5033C84.2756 83.436 84.2137 83.2686 84.2811 83.125C84.689 82.241 85.3665 80.2277 86.0823 78.0943C87.1987 74.7477 88.4718 70.9574 89.2659 69.8825C90.0745 68.7785 90.814 68.6276 91.2948 68.6821C91.8994 68.7567 92.4149 69.2187 92.7099 69.9444C93.3364 71.5085 100.898 82.432 102.884 82.432C104.435 82.432 112.228 73.2363 116.778 67.4381C116.876 67.3163 117.049 67.2944 117.177 67.389C117.302 67.4854 117.321 67.6636 117.226 67.7873C116.002 69.3478 105.229 83.0013 102.884 83.0013C100.35 83.0013 92.617 71.2412 92.1799 70.1572C91.9705 69.637 91.6098 69.2951 91.2237 69.246C90.7429 69.1841 90.2257 69.5352 89.723 70.219C88.9854 71.223 87.7305 74.9714 86.6214 78.2725C85.8692 80.5169 85.219 82.4557 84.7965 83.3669C84.7255 83.5124 84.5561 83.5651 84.4177 83.5033Z" fill="white"/>
<path d="M54.2283 83.3305C54.2119 83.2814 52.713 78.4507 52.2413 74.9387C51.8807 72.2597 50.1086 70.8938 49.4275 70.4645C49.0541 71.3976 47.8703 74.1621 46.4023 75.628C45.3952 76.632 43.6686 77.8906 42.1424 78.9964C41.0351 79.8021 40.0771 80.4987 39.6819 80.8951C38.3541 82.2192 36.3125 83.8998 33.8829 83.0759C31.5444 82.2938 20.3363 73.4982 19.8592 73.1254C19.7353 73.0272 19.7116 72.8453 19.81 72.7271C19.9065 72.6016 20.0868 72.5834 20.2107 72.678C20.3272 72.7653 31.8176 81.7882 34.0614 82.5393C36.1832 83.2504 38.0573 81.7081 39.2794 80.4896C39.7055 80.064 40.6799 79.3565 41.8091 78.5344C43.3171 77.4413 45.0255 76.2009 45.9962 75.2279C47.6608 73.5655 49.0013 69.988 49.014 69.9516C49.0432 69.8771 49.0996 69.8189 49.1743 69.788C49.2508 69.757 49.3328 69.757 49.4056 69.7971C49.524 69.8498 52.316 71.2284 52.8059 74.8641C53.2703 78.3252 54.7547 83.1122 54.7711 83.1613C54.8166 83.3068 54.7328 83.4669 54.5835 83.516C54.4341 83.5615 54.2739 83.4814 54.2283 83.3305Z" fill="white"/>
<path d="M33.5004 71.8995C33.4276 71.8995 33.3529 71.8686 33.3001 71.8159C30.4116 68.9259 23.407 67.118 23.3341 67.0998C23.1829 67.0634 23.0901 66.9089 23.1301 66.7524C23.1684 66.6015 23.3268 66.5087 23.478 66.5487C23.753 66.6197 29.8761 68.202 33.1089 70.8738C32.8593 68.8949 32.4313 63.7133 34.2872 60.967C36.5656 57.5986 39.6417 57.4822 40.7728 57.5622C40.4285 55.9363 39.4687 49.9307 43.3262 47.4299C45.1511 46.2459 46.8194 45.7748 48.1635 45.3983C50.1104 44.8473 50.9719 44.5399 50.9719 43.0649C50.9719 42.2028 50.5202 41.2115 46.9888 41.2115C46.8904 41.2115 46.7975 41.157 46.7447 41.0697C46.5261 40.7005 41.4302 32.0432 43.1058 26.0776C42.3117 25.3974 38.8003 22.0654 40.6963 17.6786C40.7309 17.5949 40.8074 17.5312 40.8984 17.5149C40.9895 17.4912 41.0824 17.5185 41.1498 17.584C41.2499 17.6749 43.6012 19.8247 46.8103 18.617C47.0142 18.5407 47.2292 18.4515 47.4568 18.3624C49.7553 17.4294 53.2284 16.0344 58.6267 18.5898C58.7687 18.6607 58.8325 18.8298 58.7633 18.9717C58.6941 19.1099 58.5265 19.1663 58.3826 19.1063C53.2157 16.6564 49.8773 17.9987 47.6699 18.8862C47.4386 18.9808 47.2182 19.0699 47.0106 19.1499C44.1312 20.2339 41.8801 18.8699 41.0769 18.2569C39.4942 22.5619 43.4336 25.6211 43.6048 25.7539C43.6995 25.8248 43.7396 25.9485 43.705 26.0649C42.064 31.3975 46.497 39.4874 47.1527 40.6423C50.1887 40.6677 51.5419 41.4189 51.5419 43.0649C51.5419 45.0328 50.1887 45.4147 48.3165 45.944C47.0106 46.3132 45.386 46.7697 43.6376 47.9046C39.5871 50.5309 41.3975 57.7477 41.4175 57.8241C41.4393 57.9169 41.412 58.0206 41.3465 58.0897C41.2772 58.1624 41.1716 58.1933 41.0806 58.1715C40.9294 58.1388 37.3579 57.4367 34.7589 61.2852C32.6135 64.4644 33.77 71.494 33.7791 71.5649C33.8028 71.6904 33.739 71.8104 33.6316 71.8686C33.5897 71.885 33.5441 71.8995 33.5004 71.8995Z" fill="white"/>
<path fill-rule="evenodd" clip-rule="evenodd" d="M10.374 67.5436C8.14112 67.5436 6.32532 65.7303 6.32532 63.4987C6.32532 61.2725 8.14112 59.4592 10.374 59.4592C12.6069 59.4592 14.4227 61.2725 14.4227 63.4987C14.4227 65.7303 12.6069 67.5436 10.374 67.5436ZM10.374 61.1652C9.08272 61.1652 8.03367 62.211 8.03367 63.4987C8.03367 64.7882 9.08272 65.8376 10.374 65.8376C11.6653 65.8376 12.7143 64.7882 12.7143 63.4987C12.7143 62.211 11.6653 61.1652 10.374 61.1652Z" fill="#E6E7E8"/>
<path fill-rule="evenodd" clip-rule="evenodd" d="M123.265 60.0103C121.156 60.0103 119.442 58.2988 119.442 56.1927C119.442 54.0902 121.156 52.3806 123.265 52.3806C125.371 52.3806 127.085 54.0902 127.085 56.1927C127.085 58.2988 125.371 60.0103 123.265 60.0103ZM123.265 54.0866C122.1 54.0866 121.153 55.0323 121.153 56.1927C121.153 57.3567 122.1 58.3043 123.265 58.3043C124.427 58.3043 125.376 57.3567 125.376 56.1927C125.376 55.0323 124.427 54.0866 123.265 54.0866Z" fill="#E6E7E8"/>
<path fill-rule="evenodd" clip-rule="evenodd" d="M10.3739 66.9743C8.45615 66.9743 6.89532 65.4138 6.89532 63.4987C6.89532 61.5835 8.45615 60.0285 10.3739 60.0285C12.2917 60.0285 13.8526 61.5835 13.8526 63.4987C13.8526 65.4138 12.2917 66.9743 10.3739 66.9743ZM10.3739 60.5977C8.76941 60.5977 7.46538 61.8982 7.46538 63.4987C7.46538 65.1028 8.76941 66.4051 10.3739 66.4051C11.9785 66.4051 13.2843 65.1028 13.2843 63.4987C13.2843 61.8982 11.9785 60.5977 10.3739 60.5977Z" fill="white"/>
<path fill-rule="evenodd" clip-rule="evenodd" d="M123.265 59.441C121.473 59.441 120.013 57.9842 120.013 56.1927C120.013 54.4012 121.473 52.948 123.265 52.948C125.059 52.948 126.514 54.4012 126.514 56.1927C126.514 57.9842 125.059 59.441 123.265 59.441ZM123.265 53.5173C121.788 53.5173 120.583 54.7177 120.583 56.1927C120.583 57.6677 121.788 58.8717 123.265 58.8717C124.744 58.8717 125.946 57.6677 125.946 56.1927C125.946 54.7177 124.744 53.5173 123.265 53.5173Z" fill="white"/>
</svg>
